<?xml version="1.0" encoding="UTF-8"?> <!-- Generator: Adobe Illustrator 18.0.0, SVG Export Plug-In . SVG Version: 6.00 Build 0) --> <svg xmlns="http://www.w3.org/2000/svg" xmlns:xlink="http://www.w3.org/1999/xlink" id="Capa_1" x="0px" y="0px" viewBox="0 0 512 512" xml:space="preserve"> <g> <path opacity="0.15" fill="#FF5F82" d="M457.8,268.3c4.5-6.6,7.1-14.5,7.1-23.1v-7.9c0-22.5-18.1-40.9-40.6-41.3v163.9h73.9 c5.4,0,9.8-4.4,9.8-9.8v-19.8C508.1,299.8,486.5,274.3,457.8,268.3z"></path> <path opacity="0.15" fill="#FF5F82" d="M57.1,268.3c-4.5-6.6-7.1-14.5-7.1-23.1v-7.9c0-22.5,18.1-40.9,40.6-41.3v163.9H16.7 c-5.4,0-9.8-4.4-9.8-9.8v-19.8C6.8,299.8,28.4,274.3,57.1,268.3z"></path> <path opacity="0.15" fill="#FF5F82" d="M256.4,108.7v45c0.1,0,0.2,0,0.2,0c55.3,0,100.1,44.8,100.1,100.1 c0,55.3-44.8,100.1-100.1,100.1c-0.1,0-0.2,0-0.2,0v45c80.1,0,145.1-65,145.1-145.1S336.6,108.7,256.4,108.7z"></path> <g> <g> <g> <path fill="#FF5F82" d="M457.8,268.3c4.5-6.6,7.1-14.5,7.1-23.1v-7.9c0-22.8-18.6-41.4-41.4-41.4c-11.4,0-21.7,4.6-29.2,12.1 c-19.4-57.7-73.9-99.3-138-99.3s-118.7,41.6-138,99.3c-7.5-7.5-17.8-12.1-29.2-12.1c-22.8,0-41.4,18.6-41.4,41.4v7.9 c0,8.5,2.6,16.5,7.1,23.1c-28.7,6-50.2,31.5-50.2,61.9V350c0,5.4,4.4,9.8,9.8,9.8h82.3c5.4,0,9.8-4.4,9.8-9.8s-4.4-9.8-9.8-9.8 H24.1v-10c0-24.1,19.6-43.6,43.6-43.6h46.6c3.8,16.6,10.4,32.1,19.3,46.1L21.3,444.9C7,459.3,7,482.7,21.3,497.1 c7.2,7.2,16.6,10.8,26.1,10.8s18.9-3.6,26.1-10.8l61.9-61.9c3.8-3.8,3.8-10.1,0-13.9c-3.8-3.8-10.1-3.8-13.9,0l-61.9,61.9 c-6.7,6.7-17.6,6.7-24.3,0c-6.7-6.7-6.7-17.6,0-24.3l110.2-110.2c26.7,31.3,66.5,51.3,110.8,51.3c69.2,0,127.2-48.5,142-113.3 h46.6c24.1,0,43.6,19.6,43.6,43.6v10h-92.5c-5.4,0-9.8,4.4-9.8,9.8s4.4,9.8,9.8,9.8h102.3c5.4,0,9.8-4.4,9.8-9.8v-19.8 C508.1,299.8,486.5,274.3,457.8,268.3z M110.7,245.2c0,12-9.7,21.7-21.7,21.7s-21.7-9.7-21.7-21.7v-7.9c0-12,9.7-21.7,21.7-21.7 s21.7,9.7,21.7,21.7V245.2z M256.2,380.2c-69.4,0-125.9-56.5-125.9-125.9s56.5-125.9,125.9-125.9s125.9,56.5,125.9,125.9 S325.7,380.2,256.2,380.2z M445.2,245.2c0,12-9.7,21.7-21.7,21.7s-21.7-9.7-21.7-21.7v-7.9c0-12,9.7-21.7,21.7-21.7 s21.7,9.7,21.7,21.7V245.2z"></path> </g> </g> <g> <g> <path fill="#FF5F82" d="M256.2,148.1c-58.6,0-106.2,47.7-106.2,106.2c0,30.4,12.8,57.9,33.4,77.3c0.4,0.4,0.7,0.7,1.1,1.1 c18.9,17.3,44.1,27.9,71.7,27.9c27.6,0,52.8-10.6,71.7-27.9c0.4-0.3,0.8-0.7,1.1-1.1c20.5-19.4,33.4-46.8,33.4-77.3 C362.5,195.7,314.8,148.1,256.2,148.1z M256.2,340.9c-20.2,0-38.9-7-53.6-18.6c10.5-19.8,30.8-32.2,53.6-32.2 s43.2,12.4,53.6,32.2C295.1,333.9,276.5,340.9,256.2,340.9z M235.5,249.6V242c0-11.4,9.3-20.7,20.7-20.7S277,230.5,277,242v7.6 c0,11.4-9.3,20.7-20.7,20.7S235.5,261,235.5,249.6z M324.2,307.8c-9-14.4-22.2-25.3-37.6-31.6c6.2-7.1,10-16.4,10-26.6V242 c0-22.3-18.1-40.4-40.4-40.4c-22.3,0-40.4,18.1-40.4,40.4v7.6c0,10.2,3.8,19.5,10,26.6c-15.4,6.3-28.6,17.2-37.6,31.6 c-11.6-14.7-18.6-33.3-18.6-53.5c0-47.7,38.8-86.6,86.6-86.6s86.6,38.8,86.6,86.6C342.8,274.5,335.9,293.1,324.2,307.8z"></path> </g> </g> <g> <g> <path fill="#FF5F82" d="M161.7,394.9c-1.8-1.8-4.4-2.9-7-2.9c-2.6,0-5.1,1.1-7,2.9c-1.8,1.8-2.9,4.4-2.9,7s1.1,5.1,2.9,7 c1.8,1.8,4.4,2.9,7,2.9c2.6,0,5.1-1.1,7-2.9c1.8-1.8,2.9-4.4,2.9-7S163.5,396.8,161.7,394.9z"></path> </g> </g> <g> <g> <path fill="#FF5F82" d="M256.4,4.2c-5.4,0-9.8,4.4-9.8,9.8v33.5c0,5.4,4.4,9.8,9.8,9.8s9.8-4.4,9.8-9.8V14 C266.3,8.6,261.9,4.2,256.4,4.2z"></path> </g> </g> <g> <g> <path fill="#FF5F82" d="M263.4,73c-1.8-1.8-4.4-2.9-7-2.9c-2.6,0-5.1,1.1-7,2.9c-1.8,1.8-2.9,4.4-2.9,7c0,2.6,1.1,5.1,2.9,7 c1.8,1.8,4.4,2.9,7,2.9c2.6,0,5.1-1.1,7-2.9c1.8-1.8,2.9-4.4,2.9-7C266.3,77.3,265.2,74.8,263.4,73z"></path> </g> </g> <g> <g> <path fill="#FF5F82" d="M339.8,42.8c-3.8-3.8-10.1-3.8-13.9,0L308.6,60c-3.8,3.8-3.8,10.1,0,13.9c1.9,1.9,4.4,2.9,7,2.9 c2.5,0,5-1,7-2.9l17.3-17.3C343.7,52.8,343.7,46.6,339.8,42.8z"></path> </g> </g> <g> <g> <path fill="#FF5F82" d="M204,60.2l-17.5-17.5c-3.8-3.8-10.1-3.8-13.9,0c-3.8,3.8-3.8,10.1,0,13.9l17.5,17.5 c1.9,1.9,4.4,2.9,7,2.9c2.5,0,5-1,7-2.9C207.8,70.2,207.8,64,204,60.2z"></path> </g> </g> </g> </g> </svg> 