<?xml version="1.0" encoding="UTF-8"?> <!-- Generator: Adobe Illustrator 18.0.0, SVG Export Plug-In . SVG Version: 6.00 Build 0) --> <svg xmlns="http://www.w3.org/2000/svg" xmlns:xlink="http://www.w3.org/1999/xlink" id="Capa_1" x="0px" y="0px" viewBox="0 46 180 180.5" xml:space="preserve"> <g> <g> <path fill="#FF0145" d="M140.5,89.9l-27,20.9V76.7C124,77.4,133.6,82.1,140.5,89.9z"></path> </g> <path fill="#FF0145" d="M61.7,136c0-13.2,6.4-24.8,16.3-32c0.6-0.4,1.2-0.9,1.8-1.3c0.8-0.5,1.6-1,2.5-1.5c0.2-0.1,0.3-0.2,0.5-0.3 c4.8-2.6,10.3-4.2,16.1-4.5v39.5c0,0.6,0.2,1.1,0.5,1.5l0,0l23.2,32.1c-0.1,0.1-0.2,0.1-0.2,0.2c-0.6,0.3-1.2,0.6-1.8,1 c0,0,0,0,0,0c-5.7,3.1-12.2,5-19.1,5C79.5,175.7,61.7,157.9,61.7,136z"></path> <path fill="#E0DBE5" d="M39.7,214.5h-6.9v-91.8h6.9V214.5z"></path> <path fill="#E0DBE5" d="M16.2,214.5H9.3v-73.8h6.9V214.5z"></path> <path fill="#E0DBE5" d="M63.9,214.5H57v-40.6h6.9V214.5z"></path> <path fill="#E0DBE5" d="M88.2,214.5h-6.9v-61.6h6.9V214.5z"></path> <path fill="#E0DBE5" d="M167,52.7h-15.7v140.5H167c6.6,0,12-5.4,12-12V64.7C179,58.1,173.6,52.7,167,52.7z"></path> <path fill="#FF0145" d="M41.8,65.3c-0.9-2.1-3.9-2.2-4.8-0.1c-0.5,1-0.2,2.3,0.6,3.1c0.8,0.8,2.1,0.9,3.1,0.3 C41.8,68,42.3,66.5,41.8,65.3z"></path> <path fill="#FF0145" d="M59.8,65.3c-0.9-2.1-4-2.1-4.9,0c-0.5,1.1-0.1,2.4,0.8,3.1c0.9,0.7,2.1,0.7,3,0.2 C59.9,67.9,60.3,66.5,59.8,65.3z"></path> <path fill="#FF0145" d="M50.8,65.3c-0.4-1-1.4-1.6-2.4-1.6c-1.2,0-2.2,0.8-2.6,1.9c-0.3,1,0.1,2.2,0.9,2.8c0.9,0.7,2.1,0.7,3.1,0.1 C50.9,67.9,51.3,66.5,50.8,65.3z"></path> <path fill="#7646D2" d="M167.2,175.2h-28.1c-1.5,0-2.6,1.2-2.6,2.6s1.2,2.6,2.6,2.6h28.1c1.5,0,2.6-1.2,2.6-2.6 S168.7,175.2,167.2,175.2z"></path> <path fill="#7646D2" d="M167.2,163.9h-19.6c-1.5,0-2.6,1.2-2.6,2.6c0,1.5,1.2,2.6,2.6,2.6h19.6c1.5,0,2.6-1.2,2.6-2.6 C169.9,165.1,168.7,163.9,167.2,163.9z"></path> <g> <path fill="#7646D2" d="M110.9,68.1c-1.5,0-2.6,1.2-2.6,2.6V113c0,1,0.6,1.9,1.5,2.4c0.4,0.2,0.8,0.3,1.2,0.3 c0.6,0,1.1-0.2,1.6-0.6L146,89.1c0.6-0.4,0.9-1.1,1-1.8c0.1-0.7-0.1-1.4-0.5-2c-2-2.6-4.1-5-6.7-6.9c-1.9-1.4-5.9-4.1-7.9-5.3 C125.7,69.5,118.3,68.1,110.9,68.1z M140.5,86.6l-27,20.9V73.5C124,74.2,133.6,78.8,140.5,86.6z"></path> </g> <path fill="#7646D2" d="M146.5,132.7c0-2.9-0.3-5.7-0.8-8.5c-0.3-1.4-1.7-2.4-3.1-2.1c-1.4,0.3-2.4,1.7-2.1,3.1 c0.5,2.5,0.7,5,0.7,7.5c0,12.3-5.6,23.3-14.4,30.6l-21.7-30l29.3-22.8c1.5,2.3,2.8,4.7,3.9,7.2c0.6,1.4,2.1,2,3.5,1.4 c1.4-0.6,2-2.1,1.4-3.5c-1.6-3.8-3.6-7.3-6.1-10.6c-0.9-1.2-2.6-1.4-3.7-0.5l-29.2,22.7v-37c0-1.5-1.2-2.6-2.6-2.6 c-4.6,0-9.1,0.7-13.3,2.1c-0.1,0-0.2,0.1-0.3,0.1c-1.1,0.4-2.3,0.8-3.4,1.2c-0.3,0.1-0.6,0.2-0.9,0.4c-0.8,0.4-1.6,0.7-2.4,1.1 c-14.7,7.4-24.9,22.6-24.9,40.2c0,24.9,20.2,45,45,45c9.8,0,18.9-3.2,26.3-8.6l0-0.1C139.1,161,146.5,147.7,146.5,132.7z M61.7,132.8c0-13.2,6.4-24.8,16.3-32c0.6-0.4,1.2-0.9,1.8-1.3c0.8-0.5,1.6-1,2.5-1.5c0.2-0.1,0.3-0.2,0.5-0.3 c4.8-2.6,10.3-4.2,16.1-4.5v39.5c0,0.6,0.2,1.1,0.5,1.5l0,0l23.2,32.1c-0.1,0.1-0.2,0.1-0.2,0.2c-0.6,0.3-1.2,0.6-1.8,1 c0,0,0,0,0,0c-5.7,3.1-12.2,5-19.1,5C79.5,172.5,61.7,154.7,61.7,132.8z"></path> <g> <rect x="66.2" y="188" fill="#7646D2" width="6.8" height="5.3"></rect> <path fill="#7646D2" d="M167,52.7H36.4c-6.6,0-12,5.4-12,12v46.4c0,1.5,1.2,2.6,2.6,2.6c1.5,0,2.6-1.2,2.6-2.6V78.5h78.6v-5.3 H29.7v-8.5c0-3.7,3-6.7,6.7-6.7H167c3.7,0,6.7,3,6.7,6.7v8.5h-41.9c2,1.2,6,3.9,7.9,5.3h34v102.8c0,3.7-3,6.7-6.7,6.7H90.5v5.3 H167c6.6,0,12-5.4,12-12V64.7C179,58.1,173.6,52.7,167,52.7z"></path> <rect x="42" y="188" fill="#7646D2" width="6.8" height="5.3"></rect> </g> <g> <path fill="#7646D2" d="M15.8,135.3H3.6c-1.5,0-2.6,1.2-2.6,2.6v79.1c0,1.5,1.2,2.6,2.6,2.6h12.2c1.5,0,2.6-1.2,2.6-2.6v-21.4 c0-1.5-1.2-2.6-2.6-2.6s-2.6,1.2-2.6,2.6v18.8H6.3v-73.8h6.9v46.2c0,1.5,1.2,2.6,2.6,2.6s2.6-1.2,2.6-2.6V138 C18.5,136.5,17.3,135.3,15.8,135.3z"></path> <path fill="#7646D2" d="M39.3,117.3H27.1c-1.5,0-2.6,1.2-2.6,2.6v97.1c0,1.5,1.2,2.6,2.6,2.6h12.2c1.5,0,2.6-1.2,2.6-2.6v-15v-6.4 V120C42,118.5,40.8,117.3,39.3,117.3z M36.7,214.5h-6.9v-91.8h6.9V214.5z"></path> <path fill="#7646D2" d="M63.6,168.6H51.4c-1.5,0-2.6,1.2-2.6,2.6v45.9c0,1.5,1.2,2.6,2.6,2.6h12.2c1.5,0,2.6-1.2,2.6-2.6v-15v-6.4 v-24.5C66.2,169.7,65,168.6,63.6,168.6z M60.9,214.5H54v-40.6h6.9V214.5z"></path> <path fill="#7646D2" d="M87.9,147.6H75.6c-1.5,0-2.6,1.2-2.6,2.6v66.9c0,1.5,1.2,2.6,2.6,2.6h12.2c1.5,0,2.6-1.2,2.6-2.6v-15v-6.4 v-45.5C90.5,148.8,89.3,147.6,87.9,147.6z M85.2,214.5h-6.9v-61.6h6.9V214.5z"></path> </g> </g> </svg> 