<?xml version="1.0" encoding="UTF-8"?> <!-- Generator: Adobe Illustrator 18.0.0, SVG Export Plug-In . SVG Version: 6.00 Build 0) --> <svg xmlns="http://www.w3.org/2000/svg" xmlns:xlink="http://www.w3.org/1999/xlink" id="Capa_1" x="0px" y="0px" viewBox="0 0 512 512" xml:space="preserve"> <g opacity="0.15"> <path fill="#FF5F82" d="M452.3,35.2h-32.3v442.9h32.3c30.7,0,55.6-25,55.6-55.6V90.9C507.9,60.2,482.9,35.2,452.3,35.2z"></path> </g> <path fill="#FF5F82" d="M204,357.4c-1.9,0-3.8-0.7-5.4-2L145,309.8c-1.8-1.6-2.9-3.9-2.9-6.3c0-2.4,1.1-4.7,2.9-6.3l53.6-45.7 c3.5-3,8.7-2.5,11.7,0.9c3,3.5,2.5,8.7-0.9,11.7l-46.2,39.4l46.2,39.4c3.5,3,3.9,8.2,0.9,11.7C208.6,356.4,206.3,357.4,204,357.4z"></path> <path fill="#FF5F82" d="M309.8,357.4c-2.3,0-4.7-1-6.3-2.9c-3-3.5-2.5-8.7,0.9-11.7l46.2-39.4l-46.2-39.4c-3.5-3-3.9-8.2-0.9-11.7 c3-3.5,8.2-3.9,11.7-0.9l53.6,45.7c1.8,1.6,2.9,3.9,2.9,6.3c0,2.4-1.1,4.7-2.9,6.3l-53.6,45.7C313.6,356.8,311.7,357.4,309.8,357.4z "></path> <path fill="#FF5F82" d="M237.9,391.7c-0.6,0-1.1-0.1-1.7-0.2c-4.5-0.9-7.3-5.3-6.4-9.8L263.2,223c0.9-4.5,5.3-7.3,9.8-6.4 c4.5,0.9,7.3,5.3,6.4,9.8L246,385.1C245.2,389,241.7,391.7,237.9,391.7z"></path> <path fill="#FF5F82" d="M452.3,35.2H61.5c-30.7,0-55.6,25-55.6,55.6v331.6c0,30.7,25,55.6,55.6,55.6h390.7c30.7,0,55.6-25,55.6-55.6 V90.9C507.9,60.2,482.9,35.2,452.3,35.2z M61.5,51.8h390.7c21.5,0,39.1,17.5,39.1,39.1v60.5H22.5V90.9C22.5,69.3,40,51.8,61.5,51.8z M452.3,461.6H61.5c-21.5,0-39.1-17.5-39.1-39.1V167.9h468.8v254.5C491.3,444,473.8,461.6,452.3,461.6z"></path> <path fill="#FF5F82" d="M147.5,128.3c-14.5,0-26.2-11.8-26.2-26.2c0-14.5,11.8-26.2,26.2-26.2c14.5,0,26.2,11.8,26.2,26.2 C173.7,116.5,162,128.3,147.5,128.3z M147.5,92.4c-5.3,0-9.7,4.3-9.7,9.7c0,5.3,4.3,9.7,9.7,9.7c5.3,0,9.7-4.3,9.7-9.7 C157.2,96.7,152.8,92.4,147.5,92.4z"></path> <path fill="#FF5F82" d="M66.9,128c-14.5,0-26.2-11.8-26.2-26.2s11.8-26.2,26.2-26.2s26.2,11.8,26.2,26.2S81.4,128,66.9,128z M66.9,92.1c-5.3,0-9.7,4.3-9.7,9.7c0,5.3,4.3,9.7,9.7,9.7c5.3,0,9.7-4.3,9.7-9.7C76.6,96.5,72.2,92.1,66.9,92.1z"></path> <path fill="#FF5F82" d="M228.1,128.5c-14.5,0-26.2-11.8-26.2-26.2c0-14.5,11.8-26.2,26.2-26.2c14.5,0,26.2,11.8,26.2,26.2 C254.3,116.8,242.5,128.5,228.1,128.5z M228.1,92.7c-5.3,0-9.6,4.3-9.6,9.7c0,5.3,4.3,9.7,9.6,9.7c5.3,0,9.7-4.3,9.7-9.7 C237.7,97,233.4,92.7,228.1,92.7z"></path> </svg> 