<?xml version="1.0" encoding="UTF-8"?> <!-- Generator: Adobe Illustrator 18.0.0, SVG Export Plug-In . SVG Version: 6.00 Build 0) --> <svg xmlns="http://www.w3.org/2000/svg" xmlns:xlink="http://www.w3.org/1999/xlink" id="Capa_1" x="0px" y="0px" viewBox="0 0 512 512" xml:space="preserve"> <g> <g opacity="0.15"> <path fill="#FF5F82" d="M490.5,195.6L387.9,311.9l-26.1-26.1l116.3-102.6c3.5-3.1,8.7-2.9,12,0.4 C493.3,186.9,493.5,192.1,490.5,195.6z"></path> </g> <g opacity="0.15"> <path fill="#FF5F82" d="M159.1,269.6v44.7h8.2v14.6c10.4-0.9,20.5-3.9,29.8-8.6v-13.4C197.1,286,180,269.3,159.1,269.6z"></path> <path fill="#FF5F82" d="M181.8,227.9c-1.7-8.8-8.8-15.9-17.6-17.6c-1.7-0.3-3.4-0.4-5.1-0.4v44.7 C173.2,255,184.5,242.4,181.8,227.9z"></path> </g> <g opacity="0.15"> <path fill="#FF5F82" d="M379.1,66.8v20.7H167V66.8c0-7.3,5.9-13.2,13.2-13.2h185.7C373.2,53.5,379.1,59.4,379.1,66.8z M167,449.8 v-31.9h212.1v31.9c0,7.3-5.9,13.3-13.2,13.3H180.2C172.9,463.1,167,457.1,167,449.8z"></path> <path fill="#FF5F82" d="M249.2,433.7h47.6c4.4,0,7.9,3.5,7.9,7.8c0,4.3-3.5,7.8-7.9,7.8h-47.6c-4.4,0-7.9-3.5-7.9-7.8 C241.3,437.2,244.8,433.7,249.2,433.7z"></path> </g> <path fill="#FFFFFF" d="M248.2,433.7h47c4.3,0,7.8,3.5,7.8,7.8c0,4.3-3.5,7.8-7.8,7.8h-47c-4.3,0-7.8-3.5-7.8-7.8 C240.4,437.2,243.8,433.7,248.2,433.7z"></path> <path fill="#FF5F82" d="M347.9,270c-27.6,1.6-49.2,24.4-49.3,52.1v13.2c0,7.4-4.2,14.2-10.8,17.5c-3.1,1.5-4.7,5-3.9,8.4 c0.8,3.4,3.8,5.8,7.3,5.7h52.2c27.7,0,50.5-21.6,52.1-49.3l106.2-120.3c6.2-7,7.7-16.9,3.8-25.4c-3.8-8.5-12.3-14-21.6-14 c-5.8,0-11.4,2.1-15.7,6L347.9,270z M343.4,352h-34.1c2.8-5.1,4.3-10.9,4.3-16.7v-13.2c0-19.4,14.9-35.6,34.3-37.2l32.7,32.7 C379,337,362.8,351.9,343.4,352z M490.5,187.5L387.8,303.8l-26.1-26.1l116.3-102.6c3.5-3.1,8.7-2.9,12,0.4 C493.3,178.7,493.5,184,490.5,187.5z"></path> <g> <path fill="#FF5F82" d="M11.1,449h115.3c4.1,0,7.5-3.3,7.5-7.5v-59.7c0-4.1-3.3-7.5-7.5-7.5H11.1c-4.1,0-7.5,3.3-7.5,7.5v59.7 C3.7,445.7,7,449,11.1,449z M18.6,389.3H119v44.8H18.6V389.3z"></path> <path fill="#FF5F82" d="M33.5,404.2h37.3v14.9H33.5V404.2z"></path> <path fill="#FF5F82" d="M85.8,404.2H104v14.9H85.8V404.2z"></path> </g> <g> <path fill="#FF5F82" d="M51.8,128.1h74.6c4.1,0,7.5-3.3,7.5-7.5V61c0-4.1-3.3-7.5-7.5-7.5H51.8c-4.1,0-7.5,3.3-7.5,7.5v59.7 C44.3,124.8,47.7,128.1,51.8,128.1z M59.3,68.5H119v44.8H59.3V68.5z"></path> <path fill="#FF5F82" d="M74.2,83.4H104v14.9H74.2V83.4z"></path> </g> <path fill="#FF5F82" d="M270.4,239.5L270.4,239.5h-14.7c-3.7-47.6-41.5-85.4-89.2-89.2v-14.6v-0.1c0-4.1-3.3-7.5-7.5-7.5 c-4.1,0-7.5,3.3-7.5,7.5v0.1v14.6c-20.8,3.1-29.8,7.1-29.8,7.1c-33.6,14.1-56.5,45.8-59.3,82.1H47.9h-0.1c-4.1,0-7.5,3.3-7.5,7.5 c0,4.1,3.3,7.5,7.5,7.5h0.1h14.6c3.5,47.7,41.4,85.7,89.1,89.2v14.6v0.1c0,4.1,3.3,7.5,7.5,7.5c4.1,0,7.5-3.3,7.5-7.5v-0.1v-14.6 c47.7-3.5,85.6-41.5,89.1-89.2h14.6h0.1c4.1,0,7.5-3.3,7.5-7.5C277.9,242.8,274.6,239.5,270.4,239.5z M196.4,320.1 c-9.3,4.8-19.4,7.7-29.8,8.6v-14.6h-14.9v14.6c-10.4-0.9-20.5-3.9-29.8-8.6v-12c0-17.9,12-34.4,29.6-37.9c24-4.8,45,13.4,45,36.5 V320.1z M163.5,210.1c8.8,1.7,15.9,8.8,17.6,17.6c3,15.8-10.6,29.3-26.4,26.4c-8.8-1.7-15.9-8.8-17.6-17.6 C134.1,220.6,147.7,207.1,163.5,210.1z M240.8,254.4c-1.9,20.7-11.5,39.9-27,53.8v0c-0.8,0.7-1.7,1.3-2.5,2v-3.5 c0-19.5-10.9-37.4-28.2-46.3c12-10.1,16.4-26.6,11-41.3c-5.4-14.7-19.4-24.5-35-24.5s-29.7,9.8-35,24.5c-5.4,14.7-1,31.2,11,41.3 c-17.3,9-28.2,26.8-28.2,46.3v3.6c-0.8-0.7-1.7-1.3-2.5-2c-15.5-13.9-25.1-33.1-27-53.8h14.5v-14.9H77.4 c3.6-39.4,34.8-70.6,74.2-74.2v14.5h14.9v-14.5c39.4,3.6,70.6,34.8,74.2,74.2h-14.5v14.9H240.8z"></path> <g> <path fill="#FF5F82" d="M364.6,31H180.1c-15.8,0-28.7,12.9-28.7,28.7v53.4c0,4.3,3.5,7.8,7.8,7.8c4.3,0,7.8-3.5,7.8-7.8v-10.5 h210.6V219c0,4.3,3.5,7.8,7.8,7.8s7.8-3.5,7.8-7.8V59.7C393.3,43.9,380.4,31,364.6,31z M377.6,87.5H167V59.7c0-7.1,5.8-13,13-13 h184.5c7.2,0,13,5.8,13,13V87.5z"></path> <path fill="#FF5F82" d="M385.5,366.3c-4.3,0-7.8,3.5-7.8,7.8v29.7H167v-21.5c0-4.3-3.5-7.8-7.8-7.8c-4.3,0-7.8,3.5-7.8,7.8v67.7 c0,15.8,12.8,28.7,28.7,28.8h184.5c15.9-0.1,28.7-13,28.7-28.8v-75.9C393.3,369.7,389.8,366.3,385.5,366.3z M377.6,450 c0,7.2-5.8,13-13,13H180.1c-7.2,0-13-5.8-13-13v-31.2h210.6V450z"></path> </g> </g> </svg> 