<?xml version="1.0" encoding="UTF-8"?> <!-- Generator: Adobe Illustrator 18.0.0, SVG Export Plug-In . SVG Version: 6.00 Build 0) --> <svg xmlns="http://www.w3.org/2000/svg" xmlns:xlink="http://www.w3.org/1999/xlink" id="Capa_1" x="0px" y="0px" viewBox="0 0 512 512" xml:space="preserve"> <g> <path fill="#FF0145" d="M490.7,480.9c0,13.9-11.3,25.2-25.2,25.2h-176l0.4-53c19.3,6.6,40.7,0.9,54.2-14.5 c13.4-15.4,16.2-37.4,7.1-55.6c-9.1-18.3-28.4-29.2-48.8-27.6c-4.5,0.7-8.8,2.1-12.9,4v-46.1H347c5.9,0.1,11.3-3.1,14.3-8.2 c3-5.3,2.9-11.7-0.1-17c-5-8.8-5.9-19.3-2.2-28.8c3.6-9.4,11.4-16.7,21-19.8h0.1c3.3-1.1,6.7-1.7,10.2-1.7c10.5,0,20.5,5,26.8,13.4 c4.4,5.8,6.8,12.9,6.7,20.1c0,5.9-1.6,11.6-4.5,16.7c-3.1,5.3-3.1,11.7-0.1,17c2.9,5.1,8.4,8.2,14.3,8.2h57.4V480.9z"></path> <path fill="#DC0337" d="M419.1,305c-3-5.3-3-11.8,0.1-17c2.9-5.1,4.5-10.8,4.5-16.7c0-7.3-2.3-14.3-6.7-20.1 c-1.3-1.7-2.8-3.2-4.4-4.6V506h53c13.9,0,25.2-11.3,25.2-25.2V313.2h-57.4C427.5,313.3,422,310.1,419.1,305z"></path> <path fill="#FF0145" d="M21.3,61.7c0-13.9,11.3-25.2,25.2-25.2h176v53.2c0,5.4,2.5,10.4,6.9,13.5c4.6,3.2,10.4,4.1,15.7,2.2 c12.9-4.2,27-0.5,36.1,9.5c4.8,5.4,7.7,12.1,8.3,19.3c0.2,2.4,0.2,4.8-0.1,7.2c-2.1,15.3-14.3,27.3-29.7,29.1 c-4.9,0.5-9.9-0.1-14.5-1.7c-5.3-1.8-11.1-1-15.6,2.2c-4.4,3.1-7,8.1-6.9,13.5v53.2l-57.2,0.3c0.4-0.8,0.7-1.6,1.1-2.4 c6.9-13,7.7-28.3,2.2-42c-5.5-13.6-16.7-24.2-30.6-28.8c-2-0.7-4.1-1.3-6.2-1.7c-1.8-0.3-3.7-0.6-5.6-0.7h-0.1 c-1.4-0.1-2.8-0.2-4.2-0.2c-0.3,0-0.5,0.1-0.8,0.1c-2.3,0-4.7,0.2-7,0.6c-0.8,0.1-1.5,0.3-2.2,0.4c-2,0.4-3.9,0.9-5.8,1.5 c-0.5,0.2-1,0.3-1.6,0.5c-2.3,0.9-4.5,1.9-6.6,3c-0.6,0.3-1.2,0.7-1.7,1c-2.2,1.3-4.2,2.7-6.2,4.2l-0.1,0.1 c-1.4,1.2-2.8,2.5-4.1,3.8c-9.1,9.4-14.2,21.9-14.2,35c0,7.9,2,15.7,5.8,22.6c0.4,0.8,0.8,1.7,1.3,2.5H21.3V61.7z"></path> <path fill="#E0DBE5" d="M46.4,266.1c-4.6,0-8.4,3.8-8.4,8.4v134.1c0,4.6,3.8,8.4,8.4,8.4c4.6,0,8.4-3.8,8.4-8.4V274.5 C54.8,269.9,51,266.1,46.4,266.1z"></path> <path fill="#DC0337" d="M46.4,56.6c-4.6,0-8.4,3.8-8.4,8.4v117.4c0,4.6,3.8,8.4,8.4,8.4c4.6,0,8.4-3.8,8.4-8.4V64.9 C54.8,60.3,51,56.6,46.4,56.6z"></path> <g> <path fill="#7646D2" d="M490.7,282.1l-57-0.1c7.3-12.7,8.7-28,3.8-41.9h2.9c9.3,0,16.8-7.5,16.8-16.8v-176 c0-23.1-18.8-41.9-41.9-41.9H46.4C23.3,5.5,4.5,24.3,4.5,47.4v360.5c0,23.1,18.8,41.9,41.9,41.9h176c9.3,0,16.8-7.5,16.8-16.8 l0.3-53c5.3,1.8,10.8,2.8,16.4,2.7c17.1,0,32.9-8.7,42.2-23c4.2-1.6,5.7-2,5.5-2c16.8-1.1,31.9,10.2,35.5,26.7 c2,9.9-0.5,20.3-7,28.1c-9,10.6-23.5,14.7-36.8,10.4c-5.3-1.8-11.1-1-15.7,2.2c-4.4,3.1-7,8.1-7,13.5v53.2 c0,9.3,7.5,16.8,16.8,16.8h176c23.1,0,41.9-18.8,41.9-41.9V298.9C507.5,289.6,500,282.1,490.7,282.1z M440.4,47.4v176h-12.8 c-9.7-10.9-23.6-17-38.2-16.8c1.8-10.7,0.1-21.7-4.8-31.4c-6.8-13.3-19.1-22.8-33.7-26c-14.9-3.4-30.6,0.2-42.5,9.8 c-12,9.6-18.9,24-18.9,39.3c0,8.9,2.4,17.6,7.1,25.2h-57.4l0.3-53c24.6,8.5,51.6-3.2,62.2-27c2.1-4.5,3.5-9.3,4.2-14.3 c2.2-17.3-4.7-34.6-18.3-45.5c-13.6-11-31.9-14.1-48.4-8.2V22.3h176C429.2,22.3,440.4,33.5,440.4,47.4z M347,282.1h-57.4 c-4.5,0-8.8,1.8-11.9,5c-12-5.8-25.8-6.5-38.4-2.1v-44.8h57.4c5.9,0.1,11.3-3.1,14.3-8.2c3-5.3,2.9-11.7-0.1-17 c-6.7-11.6-5.9-26,2.1-36.8c8-10.7,21.5-15.7,34.6-12.7c9.6,2.1,17.8,8.4,22.2,17.2c4.4,8.7,4.8,18.9,1.1,28 c-18.7,7.7-31,26-30.9,46.3C339.8,265.9,342.3,274.6,347,282.1z M21.3,47.4c0-13.9,11.3-25.2,25.2-25.2h176v53.2 c0,5.4,2.5,10.4,6.9,13.5c4.6,3.2,10.4,4.1,15.7,2.2c12.9-4.2,27-0.5,36.1,9.5c4.8,5.4,7.7,12.1,8.3,19.3c0.2,2.4,0.2,4.8-0.1,7.2 c-2.1,15.3-14.3,27.3-29.7,29.1c-4.9,0.5-9.9-0.1-14.5-1.7c-5.3-1.8-11.1-1-15.6,2.2c-4.4,3.1-7,8.1-6.9,13.5v53.2l-57.2,0.3 c0.4-0.8,0.7-1.6,1.1-2.4c6.9-13,7.7-28.3,2.2-42c-5.5-13.6-16.7-24.2-30.6-28.8c-2-0.7-4.1-1.3-6.2-1.7c-1.8-0.3-3.7-0.6-5.6-0.7 h-0.1c-1.4-0.1-2.8-0.2-4.2-0.2c-0.3,0-0.5,0.1-0.8,0.1c-2.3,0-4.7,0.2-7,0.6c-0.8,0.1-1.5,0.3-2.2,0.4c-2,0.4-3.9,0.9-5.8,1.5 c-0.5,0.2-1,0.3-1.6,0.5c-2.3,0.9-4.5,1.9-6.6,3c-0.6,0.3-1.2,0.7-1.7,1c-2.2,1.3-4.2,2.7-6.2,4.2l-0.1,0.1 c-1.4,1.2-2.8,2.5-4.1,3.8c-9.1,9.4-14.2,21.9-14.2,35c0,7.9,2,15.7,5.8,22.6c0.4,0.8,0.8,1.7,1.3,2.5H21.3V47.4z M245.1,364.2 c-5.3-1.8-11.1-1-15.7,2.2c-4.4,3.1-7,8.1-7,13.5V433h-176c-13.9,0-25.2-11.3-25.2-25.1V240.2h57.4c1.5,0,2.9-0.2,4.3-0.6 c4.2-1.1,7.8-3.9,9.9-7.6c2.3-4.1,2.8-9.1,1.3-13.6c-0.4-1.2-0.8-2.4-1.4-3.6c-0.7-1.2-1.4-2.5-1.9-3.8 c-4.7-11.5-2.7-24.6,5.2-34.2c7.9-9.6,20.5-14,32.6-11.4c1.6,0.3,3.2,0.7,4.7,1.3c9.1,3.3,16.4,10.4,19.8,19.5 c3.4,9.1,2.8,19.2-1.9,27.8c-0.2,0.4-0.3,0.8-0.6,1.3c-0.7,1.2-1.2,2.4-1.6,3.7c0,0.1-0.1,0.2-0.1,0.2c-0.1,0.2,0,0.5-0.1,0.7 c-0.9,4-0.3,8.1,1.7,11.7c0.2,0.3,0.5,0.6,0.7,0.8c3.1,4.8,8.4,7.7,14.1,7.7h57V285c0,5.4,2.5,10.4,6.9,13.5 c4.6,3.2,10.4,4,15.7,2.2c9.2-3,19.2-2,27.7,2.7V345c0,4.7,2.1,9.2,5.6,12.3c-6.1,5.5-14.1,8.6-22.4,8.6 C252.3,366,248.6,365.4,245.1,364.2z M490.7,466.6c0,13.9-11.3,25.2-25.2,25.2h-176l0.4-53c19.3,6.6,40.7,0.9,54.2-14.5 c13.4-15.4,16.2-37.4,7.1-55.6c-9.1-18.3-28.4-29.2-48.8-27.6c-4.5,0.7-8.8,2.1-12.9,4v-46.1H347c5.9,0.1,11.3-3.1,14.3-8.2 c3-5.3,2.9-11.7-0.1-17c-5-8.8-5.9-19.3-2.2-28.8c3.6-9.4,11.4-16.7,21-19.8h0.1c3.3-1.1,6.7-1.7,10.2-1.7 c10.5,0,20.5,5,26.8,13.4c4.4,5.8,6.8,12.9,6.7,20.1c0,5.9-1.6,11.6-4.5,16.7c-3.1,5.3-3.1,11.7-0.1,17c2.9,5.1,8.4,8.2,14.3,8.2 h57.4V466.6z"></path> </g> <path fill="#E0DBE5" d="M427.6,223.5h12.8V47.4c0-13.9-11.3-25.1-25.2-25.1h-53v131c9.5,4.7,17.4,12.4,22.3,22 c4.9,9.7,6.5,20.7,4.8,31.4C404,206.4,417.9,212.6,427.6,223.5z"></path> </g> </svg> 