<?xml version="1.0" encoding="utf-8"?>
<!-- Generator: Adobe Illustrator 18.0.0, SVG Export Plug-In . SVG Version: 6.00 Build 0)  -->
<!DOCTYPE svg PUBLIC "-//W3C//DTD SVG 1.1//EN" "http://www.w3.org/Graphics/SVG/1.1/DTD/svg11.dtd">
<svg version="1.1" id="Capa_1" xmlns="http://www.w3.org/2000/svg" xmlns:xlink="http://www.w3.org/1999/xlink" x="0px" y="0px"
	 viewBox="0 0 1048.8 1048.8" enable-background="new 0 0 1048.8 1048.8" xml:space="preserve">
<g>
	<g>
		<path fill="#FFFFFF" d="M721.1,0H327.8C146.8,0,0,146.8,0,327.8v393.3c0,181,146.8,327.8,327.8,327.8h393.3
			c181,0,327.8-146.8,327.8-327.8V327.8C1048.8,146.8,902.1,0,721.1,0z M950.5,721.1c0,126.5-102.9,229.4-229.4,229.4H327.8
			c-126.5,0-229.4-102.9-229.4-229.4V327.8c0-126.5,102.9-229.4,229.4-229.4h393.3c126.5,0,229.4,102.9,229.4,229.4V721.1z"/>
	</g>
</g>
<g>
	<g>
		<path fill="#FFFFFF" d="M524.4,262.2c-144.8,0-262.2,117.4-262.2,262.2s117.4,262.2,262.2,262.2s262.2-117.4,262.2-262.2
			S669.2,262.2,524.4,262.2z M524.4,688.3c-90.3,0-163.9-73.5-163.9-163.9c0-90.4,73.5-163.9,163.9-163.9S688.3,434,688.3,524.4
			C688.3,614.7,614.7,688.3,524.4,688.3z"/>
	</g>
</g>
<g>
	<g>
		<circle fill="#FFFFFF" cx="806.3" cy="242.5" r="34.9"/>
	</g>
</g>
</svg>
