<?xml version="1.0" encoding="UTF-8"?> <!-- Generator: Adobe Illustrator 18.0.0, SVG Export Plug-In . SVG Version: 6.00 Build 0) --> <svg xmlns="http://www.w3.org/2000/svg" xmlns:xlink="http://www.w3.org/1999/xlink" id="Capa_1" x="0px" y="0px" viewBox="0 0 56.1 55.7" xml:space="preserve"> <g> <path fill="#E0DBE5" d="M54,37.5l-1.8-0.7c0.3-1.8,0.3-3.5,0-5.3l1.8-0.7c0.7-0.3,1.2-0.8,1.5-1.5c0.3-0.7,0.3-1.5,0-2.2l-1.2-2.8 c-0.3-0.7-0.8-1.2-1.5-1.5c-0.7-0.3-1.5-0.3-2.2,0l-1.8,0.7c-1.1-1.4-2.3-2.7-3.7-3.7l0.7-1.8c0.3-0.7,0.3-1.5,0-2.2 c-0.3-0.7-0.8-1.2-1.5-1.5l-2.8-1.2c-1.4-0.6-3.1,0.1-3.7,1.5l-1.1,2.6l-2.2,7.9c2.4,0,4.7,1,6.4,2.7c1.7,1.7,2.6,4,2.6,6.4 c0,2.4-1,4.7-2.7,6.4c-1.7,1.7-4,2.6-6.4,2.6h0V52c0.9,0,1.8-0.1,2.6-0.2l0.7,1.8c0.6,1.4,2.2,2.1,3.7,1.5l2.8-1.2 c0.7-0.3,1.2-0.8,1.5-1.5c0.3-0.7,0.3-1.5,0-2.2l-0.7-1.8c1.4-1.1,2.7-2.3,3.7-3.7l1.8,0.7c1.4,0.6,3.1-0.1,3.7-1.5l1.2-2.8 C56.2,39.8,55.5,38.1,54,37.5z"></path> <path id="XMLID_1_" fill="#FF0145" d="M1.3,15.6v2.2c0,0.7,0.6,1.3,1.3,1.3h2c0.3,1.6,0.9,3.1,1.8,4.4L5,25c-0.5,0.5-0.5,1.3,0,1.8 l1.6,1.6c0.5,0.5,1.3,0.5,1.8,0l1.4-1.4c1.3,0.9,2.8,1.5,4.4,1.8v2c0,0.7,0.6,1.3,1.3,1.3h2.2c0.7,0,1.3-0.6,1.3-1.3v-2 c1.6-0.3,3.1-0.9,4.4-1.8l1.4,1.4c0.5,0.5,1.3,0.5,1.8,0l1.6-1.6c0.5-0.5,0.5-1.3,0-1.8l-1.4-1.4c0.9-1.3,1.5-2.8,1.8-4.4h2 c0.7,0,1.3-0.6,1.3-1.3v-2.2c0-0.7-0.6-1.3-1.3-1.3h-2c-0.3-1.6-0.9-3.1-1.8-4.4l1.4-1.4c0.5-0.5,0.5-1.3,0-1.8l-1.6-1.6 c-0.5-0.5-1.3-0.5-1.8,0l-1.4,1.4C22.1,5.7,20.6,5,19,4.7v-2c0-0.7-0.6-1.3-1.3-1.3h-2.2c-0.7,0-1.3,0.6-1.3,1.3v2 C12.6,5,11.1,5.7,9.8,6.5L8.4,5.1c-0.5-0.5-1.3-0.5-1.8,0L5,6.7C4.5,7.2,4.5,8,5,8.5l1.4,1.4c-0.9,1.3-1.5,2.8-1.8,4.4h-2 C1.9,14.3,1.3,14.9,1.3,15.6z M11.1,16.7c0-3.1,2.5-5.6,5.6-5.6s5.6,2.5,5.6,5.6s-2.5,5.6-5.6,5.6S11.1,19.8,11.1,16.7z"></path> <path fill="#DC0337" d="M30.7,19.1h-2c-0.3,1.6-1,3.1-1.8,4.4l1.4,1.4c0.5,0.5,0.5,1.3,0,1.8l-1.6,1.6c-0.5,0.5-1.3,0.5-1.8,0 l-1.4-1.4c-1.3,0.9-2.8,1.5-4.4,1.8v2c0,0.7-0.6,1.3-1.3,1.3h-1.1v-9.8c3.1,0,5.5-2.5,5.5-5.6c0-3.1-2.5-5.6-5.5-5.6V1.4h1.1 C18.4,1.4,19,2,19,2.7v2c1.6,0.3,3.1,1,4.4,1.8l1.4-1.4c0.5-0.5,1.3-0.5,1.8,0l1.6,1.6c0.5,0.5,0.5,1.3,0,1.8l-1.4,1.4 c0.9,1.3,1.5,2.8,1.8,4.4h2c0.7,0,1.3,0.6,1.3,1.3v2.2C32,18.5,31.4,19.1,30.7,19.1z"></path> <path fill="#7646D2" d="M15.4,40.4c-0.1-0.2-0.1-0.4,0-0.6c0.1-0.2,0.2-0.3,0.4-0.4l2.6-1.1c0.5-0.2,0.8-0.8,0.6-1.3 c-0.2-0.5-0.8-0.8-1.3-0.6L15,37.5c-0.7,0.3-1.2,0.8-1.5,1.5c-0.3,0.7-0.3,1.5,0,2.2l1.2,2.8c0.6,1.4,2.2,2.1,3.7,1.5l1.8-0.7 c1.1,1.4,2.3,2.7,3.7,3.7l-0.7,1.8c-0.6,1.4,0.1,3.1,1.5,3.7l2.8,1.2c0.4,0.1,0.7,0.2,1.1,0.2c1.1,0,2.2-0.7,2.6-1.7l0.7-1.8 c1.8,0.3,3.5,0.3,5.3,0l0.7,1.8c0.6,1.4,2.2,2.1,3.7,1.5l2.8-1.2c0.7-0.3,1.2-0.8,1.5-1.5c0.3-0.7,0.3-1.5,0-2.2l-0.7-1.8 c1.4-1.1,2.7-2.3,3.7-3.7l1.8,0.7c1.4,0.6,3.1-0.1,3.7-1.5l1.2-2.8c0.6-1.4-0.1-3.1-1.5-3.7l-1.8-0.7c0.3-1.8,0.3-3.5,0-5.3 l1.8-0.7c0.7-0.3,1.2-0.8,1.5-1.5c0.3-0.7,0.3-1.5,0-2.2l-1.2-2.8c-0.3-0.7-0.8-1.2-1.5-1.5c-0.7-0.3-1.5-0.3-2.2,0l-1.8,0.7 c-1.1-1.4-2.3-2.7-3.7-3.7l0.7-1.8c0.3-0.7,0.3-1.5,0-2.2c-0.3-0.7-0.8-1.2-1.5-1.5l-2.8-1.2c-1.4-0.6-3.1,0.1-3.7,1.5l-1.1,2.6 c-0.2,0.5,0,1.1,0.6,1.3c0.5,0.2,1.1,0,1.3-0.6l1.1-2.6c0.2-0.4,0.6-0.6,1-0.4l2.8,1.2c0.2,0.1,0.3,0.2,0.4,0.4s0.1,0.4,0,0.6 l-1.1,2.6c-0.2,0.5,0,1,0.4,1.2c1.7,1.2,3.2,2.6,4.4,4.4c0.3,0.4,0.8,0.6,1.2,0.4l2.6-1.1c0.2-0.1,0.4-0.1,0.6,0 c0.2,0.1,0.3,0.2,0.4,0.4l1.2,2.8c0.1,0.2,0.1,0.4,0,0.6c-0.1,0.2-0.2,0.3-0.4,0.4l-2.6,1.1C50.2,30.1,50,30.6,50,31 c0.4,2,0.4,4.1,0,6.2c-0.1,0.5,0.2,1,0.6,1.1l2.6,1.1c0.4,0.2,0.6,0.6,0.4,1l-1.2,2.8c-0.2,0.4-0.6,0.6-1,0.4l-2.6-1.1 c-0.5-0.2-1,0-1.2,0.4c-1.2,1.7-2.6,3.2-4.4,4.4c-0.4,0.3-0.6,0.8-0.4,1.2l1.1,2.6c0.1,0.2,0.1,0.4,0,0.6c-0.1,0.2-0.2,0.3-0.4,0.4 l-2.8,1.2c-0.4,0.2-0.8,0-1-0.4l-1.1-2.6c-0.2-0.5-0.7-0.7-1.1-0.6c-2,0.4-4.1,0.4-6.2,0c-0.5-0.1-1,0.2-1.1,0.6l-1.1,2.6 c-0.2,0.4-0.6,0.6-1,0.4l-2.8-1.2c-0.4-0.2-0.6-0.6-0.4-1l1.1-2.6c0.2-0.5,0-1-0.4-1.2c-1.7-1.2-3.2-2.6-4.4-4.4 c-0.3-0.4-0.8-0.6-1.2-0.4l-2.6,1.1c-0.4,0.2-0.8,0-1-0.4L15.4,40.4z"></path> <path fill="#7646D2" d="M39.5,29.2c1.3,1.3,2,3.1,2,5s-0.7,3.6-2.1,4.9c-1.3,1.3-3.1,2-4.9,2c0,0,0,0-0.1,0c-1.9,0-3.6-0.7-4.9-2.1 c-1.3-1.3-2-3.1-2-5c0-0.6-0.5-1-1-1c0,0,0,0,0,0c-0.6,0-1,0.5-1,1c0,2.4,0.9,4.7,2.6,6.4c1.7,1.7,4,2.7,6.4,2.7c0,0,0,0,0.1,0 c2.4,0,4.6-0.9,6.4-2.6c1.7-1.7,2.7-4,2.7-6.4c0-2.4-0.9-4.7-2.6-6.4c-1.7-1.7-4-2.7-6.4-2.7c0,0,0,0,0,0c-0.6,0-1,0.5-1,1 s0.5,1,1,1C36.5,27.1,38.2,27.9,39.5,29.2z"></path> <path fill="#7646D2" d="M30.6,13.3l-1.2,0c-0.3-1.1-0.7-2.2-1.3-3.2L29,9.2c0.9-0.9,0.9-2.4,0-3.3l-1.6-1.6c-0.4-0.4-1-0.7-1.6-0.7 c-0.6,0-1.2,0.2-1.6,0.7l-0.8,0.8c-1-0.6-2.1-1-3.2-1.3V2.7c0-1.3-1.1-2.3-2.3-2.3h-2.2c-1.3,0-2.3,1.1-2.3,2.3v1.2 C12.1,4.2,11,4.6,10,5.2L9.1,4.4c-0.4-0.4-1-0.7-1.6-0.7c-0.6,0-1.2,0.2-1.6,0.7L4.3,5.9c-0.9,0.9-0.9,2.4,0,3.3l0.8,0.8 c-0.6,1-1,2.1-1.3,3.2H2.6c-1.3,0-2.3,1.1-2.3,2.3v2.2c0,1.3,1.1,2.3,2.3,2.3h1.2c0.3,1.1,0.7,2.2,1.3,3.2l-0.8,0.8 c-0.9,0.9-0.9,2.4,0,3.3l1.6,1.6c0.4,0.4,1,0.7,1.6,0.7c0.6,0,1.2-0.2,1.6-0.7l0.8-0.8c1,0.6,2.1,1,3.2,1.3v1.2 c0,1.3,1.1,2.3,2.3,2.3h2.2c1.3,0,2.3-1.1,2.3-2.3v-1.2c1.1-0.3,2.2-0.7,3.2-1.3l0.8,0.8c0.4,0.4,1,0.7,1.6,0.7 c0.6,0,1.2-0.2,1.6-0.7l1.6-1.6c0.9-0.9,0.9-2.4,0-3.3l-0.8-0.8c0.6-1,1-2.1,1.3-3.2h1.2c1.3,0,2.3-1.1,2.3-2.3v-2.2 C33,14.3,31.9,13.3,30.6,13.3L30.6,13.3z M28.6,15.3h2c0.1,0,0.3,0.1,0.3,0.3v2.2c0,0.1-0.1,0.3-0.3,0.3h-2c-0.5,0-0.9,0.4-1,0.8 c-0.3,1.4-0.8,2.8-1.7,4c-0.3,0.4-0.2,0.9,0.1,1.3l1.4,1.4c0.1,0.1,0.1,0.3,0,0.4L26,27.6c-0.1,0.1-0.1,0.1-0.2,0.1 c0,0-0.1,0-0.2-0.1l-1.4-1.4c-0.3-0.3-0.9-0.4-1.3-0.1c-1.2,0.8-2.6,1.4-4,1.7c-0.5,0.1-0.8,0.5-0.8,1v2c0,0.1-0.1,0.3-0.3,0.3 h-2.2c-0.1,0-0.3-0.1-0.3-0.3v-2c0-0.5-0.4-0.9-0.8-1c-1.4-0.3-2.8-0.8-4-1.7c-0.4-0.3-0.9-0.2-1.3,0.1l-1.4,1.4 c-0.1,0.1-0.1,0.1-0.2,0.1c0,0-0.1,0-0.2-0.1l-1.5-1.6c-0.1-0.1-0.1-0.1-0.1-0.2c0,0,0-0.1,0.1-0.2l1.4-1.4 c0.3-0.3,0.4-0.9,0.1-1.3c-0.8-1.2-1.4-2.6-1.7-4c-0.1-0.5-0.5-0.8-1-0.8h-2c-0.1,0-0.3-0.1-0.3-0.3v-2.2c0-0.1,0.1-0.3,0.3-0.3h2 c0.5,0,0.9-0.4,1-0.8c0.3-1.4,0.8-2.8,1.7-4c0.3-0.4,0.2-0.9-0.1-1.3L5.7,7.8c-0.1-0.1-0.1-0.3,0-0.4l1.6-1.6 c0.1-0.1,0.1-0.1,0.2-0.1c0,0,0.1,0,0.2,0.1l1.4,1.4c0.2,0.2,0.5,0.3,0.7,0.3c0.2,0,0.4-0.1,0.6-0.2c1.2-0.8,2.6-1.4,4-1.7 c0.5-0.1,0.8-0.5,0.8-1v-2c0-0.1,0.1-0.3,0.3-0.3h2.2c0.1,0,0.3,0.1,0.3,0.3v2c0,0.5,0.4,0.9,0.8,1c1.4,0.3,2.8,0.8,4,1.7 c0.4,0.3,0.9,0.2,1.3-0.1l1.4-1.4c0.1-0.1,0.1-0.1,0.2-0.1c0,0,0.1,0,0.2,0.1l1.6,1.6c0.1,0.1,0.1,0.3,0,0.4l-1.4,1.4 c-0.3,0.3-0.4,0.9-0.1,1.3c0.8,1.2,1.4,2.6,1.7,4C27.7,15,28.1,15.4,28.6,15.3z"></path> <path fill="#7646D2" d="M23.2,16.7c0-3.6-2.9-6.6-6.6-6.6c-3.6,0-6.6,2.9-6.6,6.6c0,3.6,2.9,6.6,6.6,6.6 C20.2,23.3,23.2,20.4,23.2,16.7z M21.2,16.7c0,2.5-2,4.5-4.5,4.5s-4.5-2-4.5-4.5s2-4.5,4.5-4.5C19.1,12.2,21.2,14.2,21.2,16.7z"></path> </g> </svg> 