<?xml version="1.0" encoding="UTF-8"?> <!-- Generator: Adobe Illustrator 18.0.0, SVG Export Plug-In . SVG Version: 6.00 Build 0) --> <svg xmlns="http://www.w3.org/2000/svg" xmlns:xlink="http://www.w3.org/1999/xlink" id="Capa_1" x="0px" y="0px" viewBox="0 0 56.1 55.7" xml:space="preserve"> <g> <g> <path fill="#E0DBE5" d="M28.1,14.6v16h0.6v21.3c0,1,0.8,1.8,1.8,1.8s1.8-0.8,1.8-1.8v-31H34v11.5c1.5,0,2.7-1.2,2.7-2.7v-6.2 C36.7,18.7,32.9,14.8,28.1,14.6z"></path> <path fill="#E0DBE5" d="M28.1,12.8c2.8-0.2,5-2.5,5-5.3s-2.2-5.1-5-5.3V12.8z"></path> </g> <path fill="#7646D2" d="M50.9,0.4h-8c-2.4,0-4.4,2-4.4,4.4v6.7l-3.8,3.8c-0.9-0.8-2-1.4-3.1-1.8c2-1.3,3.4-3.5,3.4-6 c0-3.9-3.2-7.1-7.1-7.1s-7.1,3.2-7.1,7.1c0,2.5,1.3,4.8,3.4,6c-4,1.5-6.9,5.4-6.9,10v6.2c0,2.4,2,4.4,4.4,4.4v3.2L15.9,43H4.7 c-2.4,0-4.4,2-4.4,4.4V51c0,2.4,2,4.4,4.4,4.4h8c2.4,0,4.4-2,4.4-4.4v-6.7l4.4-4.4v12.1c0,2,1.6,3.5,3.5,3.5c1.1,0,2-0.5,2.7-1.2 c0.7,0.7,1.6,1.2,2.7,1.2c2,0,3.5-1.6,3.5-3.5V34.1c2.4,0,4.4-2,4.4-4.4v-6.2c0-2.6-1-5-2.5-6.9l3.8-3.8h11.2c2.4,0,4.4-2,4.4-4.4 V4.8C55.3,2.4,53.3,0.4,50.9,0.4z M15.4,51c0,1.5-1.2,2.7-2.7,2.7h-8c-1.5,0-2.7-1.2-2.7-2.7v-3.5c0-1.5,1.2-2.7,2.7-2.7h10.6V51z M22.5,7.5c0-2.9,2.4-5.3,5.3-5.3s5.3,2.4,5.3,5.3s-2.4,5.3-5.3,5.3S22.5,10.4,22.5,7.5z M36.7,29.7c0,1.5-1.2,2.7-2.7,2.7V20.8 h-1.8v31c0,1-0.8,1.8-1.8,1.8s-1.8-0.8-1.8-1.8V30.6h-1.8v21.3c0,1-0.8,1.8-1.8,1.8c-1,0-1.8-0.8-1.8-1.8v-31h-1.8v11.5 c-1.5,0-2.7-1.2-2.7-2.7v-6.2c0-4.9,4-8.9,8.9-8.9s8.9,4,8.9,8.9V29.7z M53.5,8.4c0,1.5-1.2,2.7-2.7,2.7H40.2V4.8 c0-1.5,1.2-2.7,2.7-2.7h8c1.5,0,2.7,1.2,2.7,2.7V8.4z"></path> <path fill="#7646D2" d="M42.9,3.9h8c0.5,0,0.9,0.4,0.9,0.9v0c0,0.5-0.4,0.9-0.9,0.9h-8c-0.5,0-0.9-0.4-0.9-0.9v0 C42,4.3,42.4,3.9,42.9,3.9z"></path> <path fill="#7646D2" d="M50.9,7.5L50.9,7.5c0.5,0,0.9,0.4,0.9,0.9v0c0,0.5-0.4,0.9-0.9,0.9h0c-0.5,0-0.9-0.4-0.9-0.9v0 C50,7.9,50.4,7.5,50.9,7.5z"></path> <path fill="#7646D2" d="M42.9,7.5h4.4c0.5,0,0.9,0.4,0.9,0.9v0c0,0.5-0.4,0.9-0.9,0.9h-4.4c-0.5,0-0.9-0.4-0.9-0.9v0 C42,7.9,42.4,7.5,42.9,7.5z"></path> <path fill="#7646D2" d="M4.7,50.1h8c0.5,0,0.9,0.4,0.9,0.9l0,0c0,0.5-0.4,0.9-0.9,0.9h-8c-0.5,0-0.9-0.4-0.9-0.9l0,0 C3.9,50.5,4.3,50.1,4.7,50.1z"></path> <path fill="#7646D2" d="M4.7,46.5L4.7,46.5c0.5,0,0.9,0.4,0.9,0.9v0c0,0.5-0.4,0.9-0.9,0.9h0c-0.5,0-0.9-0.4-0.9-0.9v0 C3.9,46.9,4.3,46.5,4.7,46.5z"></path> <path fill="#7646D2" d="M8.3,46.5h4.4c0.5,0,0.9,0.4,0.9,0.9v0c0,0.5-0.4,0.9-0.9,0.9H8.3c-0.5,0-0.9-0.4-0.9-0.9v0 C7.4,46.9,7.8,46.5,8.3,46.5z"></path> <path fill="#7646D2" d="M54.4,51.8L54.4,51.8c0.5,0,0.9,0.4,0.9,0.9l0,0c0,0.5-0.4,0.9-0.9,0.9l0,0c-0.5,0-0.9-0.4-0.9-0.9l0,0 C53.5,52.2,53.9,51.8,54.4,51.8z"></path> <path fill="#7646D2" d="M36.7,51.8h14.2c0.5,0,0.9,0.4,0.9,0.9l0,0c0,0.5-0.4,0.9-0.9,0.9H36.7c-0.5,0-0.9-0.4-0.9-0.9l0,0 C35.8,52.2,36.2,51.8,36.7,51.8z"></path> <path fill="#FF0145" d="M54.9,48.3h-1.3V34.1c0-0.5-0.4-0.9-0.9-0.9s-0.9,0.4-0.9,0.9v14.2H50V35.9c0-0.5-0.4-0.9-0.9-0.9 s-0.9,0.4-0.9,0.9v12.4h-1.8v-7.1c0-0.5-0.4-0.9-0.9-0.9s-0.9,0.4-0.9,0.9v7.1h-1.8v-9.7c0-0.5-0.4-0.9-0.9-0.9s-0.9,0.4-0.9,0.9 v9.7h-1.7v-8c0-0.5-0.4-0.9-0.9-0.9s-0.9,0.4-0.9,0.9v8h-0.9c-0.5,0-0.9,0.4-0.9,0.9s0.4,0.9,0.9,0.9h18.2c0.5,0,0.9-0.4,0.9-0.9 S55.4,48.3,54.9,48.3z"></path> <path fill="#7646D2" d="M10.1,19.9c5.4,0,9.8-4.4,9.8-9.8s-4.4-9.8-9.8-9.8s-9.8,4.4-9.8,9.8S4.7,19.9,10.1,19.9z M18,10.2 c0,1.5-0.4,2.9-1.1,4L14.1,12c0.3-0.6,0.4-1.2,0.4-1.9C14.5,8,13,6.2,11,5.8V2.2C14.9,2.7,18,6.1,18,10.2z M10.1,7.5 c1.5,0,2.7,1.2,2.7,2.7s-1.2,2.7-2.7,2.7s-2.7-1.2-2.7-2.7S8.6,7.5,10.1,7.5z M9.2,2.2v3.6c-2,0.4-3.5,2.2-3.5,4.3 c0,2.4,2,4.4,4.4,4.4c1.1,0,2.1-0.4,2.9-1.1l2.9,2.2c-1.5,1.5-3.5,2.5-5.8,2.5c-4.4,0-8-3.6-8-8C2.1,6.1,5.2,2.7,9.2,2.2z"></path> <g> <path fill="#E0DBE5" d="M18,10.2c0,1.5-0.4,2.9-1.1,4L14.1,12c0.3-0.6,0.4-1.2,0.4-1.9C14.5,8,13,6.2,11,5.8V2.2 C14.9,2.7,18,6.1,18,10.2z"></path> </g> <g> <path fill="#FF0145" d="M9.2,2.2v3.6c-2,0.4-3.5,2.2-3.5,4.3c0,2.4,2,4.4,4.4,4.4c1.1,0,2.1-0.4,2.9-1.1l2.9,2.2 c-1.5,1.5-3.5,2.5-5.8,2.5c-4.4,0-8-3.6-8-8C2.1,6.1,5.2,2.7,9.2,2.2z"></path> </g> </g> </svg> 