<?xml version="1.0" encoding="UTF-8"?> <!-- Generator: Adobe Illustrator 18.0.0, SVG Export Plug-In . SVG Version: 6.00 Build 0) --> <svg xmlns="http://www.w3.org/2000/svg" xmlns:xlink="http://www.w3.org/1999/xlink" id="Capa_1" x="0px" y="0px" viewBox="0 0 512 512" xml:space="preserve"> <g> <path opacity="0.15" fill="#FF5F82" d="M212.5,283.5H150V408h62.5c12.5,0,22.7-10.2,22.7-22.7v-79 C235.3,293.7,225.1,283.5,212.5,283.5z"></path> <path fill="#FF5F82" d="M413.4,3.1H98.6c-17.1,0-31.1,13.9-31.1,31.1v249.6c0,4.1,3.3,7.4,7.4,7.4c4.1,0,7.4-3.3,7.4-7.4V34.2 c0-9,7.3-16.3,16.3-16.3h314.8c9,0,16.3,7.3,16.3,16.3v442.1c0,9-7.3,16.3-16.3,16.3H98.6c-9,0-16.3-7.3-16.3-16.3V330.5 c0-4.1-3.3-7.4-7.4-7.4c-4.1,0-7.4,3.3-7.4,7.4v145.9c0,17.1,13.9,31.1,31.1,31.1h314.8c17.1,0,31.1-13.9,31.1-31.1V34.2 C444.5,17.1,430.5,3.1,413.4,3.1z"></path> <path fill="#FF5F82" d="M181.1,58.7c4.1,0,7.4-3.3,7.4-7.4c0-4.1-3.3-7.4-7.4-7.4h-66.9c-6.8,0-12.3,5.5-12.3,12.3v37.5 c0,6.8,5.5,12.3,12.3,12.3h283.6c6.8,0,12.3-5.5,12.3-12.3V56.2c0-6.8-5.5-12.3-12.3-12.3H227.4c-4.1,0-7.4,3.3-7.4,7.4 c0,4.1,3.3,7.4,7.4,7.4h167.9v32.6H116.7V58.7H181.1z"></path> <path fill="#FF5F82" d="M101.9,245.5c0,10.7,8.7,19.4,19.4,19.4h269.5c10.7,0,19.4-8.7,19.4-19.4V144c0-10.7-8.7-19.4-19.4-19.4 H121.3c-10.7,0-19.4,8.7-19.4,19.4V245.5z M154.7,250.1l69.7-69.7l54.8,61.8c2.7,3.1,7.4,3.3,10.4,0.6c3.1-2.7,3.3-7.4,0.6-10.4 l-6.7-7.5l27.8-27.8l47.1,53.1H154.7z M116.7,144c0-2.5,2.1-4.6,4.6-4.6h269.5c2.5,0,4.6,2.1,4.6,4.6v101.5c0,2.5-2.1,4.6-4.6,4.6 h-12.4l-57.6-64.9c-2.2-2.5-5.5-4-8.8-4.1c-3.4-0.1-6.7,1.2-9.1,3.6l-29.1,29.1l-40-45.1c-2.2-2.5-5.5-4-8.8-4.1 c-3.4-0.1-6.7,1.2-9.1,3.6l-82,82h-12.6c-2.5,0-4.6-2.1-4.6-4.6L116.7,144L116.7,144z"></path> <path fill="#FF5F82" d="M101.9,385.2c0,12.5,10.2,22.7,22.7,22.7h89c12.5,0,22.7-10.2,22.7-22.7v-79c0-12.5-10.2-22.7-22.7-22.7 h-89c-12.5,0-22.7,10.2-22.7,22.7V385.2z M221.6,381.1l-41.3-36.6l41.3-36.6V381.1z M213,393.2h-87.7l43.9-38.8L213,393.2z M169.1,334.7L128,298.2h82.3L169.1,334.7z M158,344.5l-41.3,36.6V308L158,344.5z"></path> <path fill="#FF5F82" d="M410.1,306.2c0-12.5-10.2-22.7-22.7-22.7h-89c-12.5,0-22.7,10.2-22.7,22.7v79c0,12.5,10.2,22.7,22.7,22.7 h89c12.5,0,22.7-10.2,22.7-22.7V306.2z M290.4,308l41.3,36.6l-41.3,36.6V308z M301.7,298.2H384l-41.2,36.4L301.7,298.2z M342.9,354.4l43.9,38.8H299L342.9,354.4z M354,344.5l41.3-36.6v73.1L354,344.5z"></path> <path fill="#FF5F82" d="M112.2,473.3h32.9c4.1,0,7.4-3.3,7.4-7.4c0-4.1-3.3-7.4-7.4-7.4h-32.9c-4.1,0-7.4,3.3-7.4,7.4 C104.8,470,108.1,473.3,112.2,473.3z"></path> <path fill="#FF5F82" d="M172.1,473.3H226c4.1,0,7.4-3.3,7.4-7.4c0-4.1-3.3-7.4-7.4-7.4h-53.9c-4.1,0-7.4,3.3-7.4,7.4 C164.7,470,168,473.3,172.1,473.3z"></path> <path fill="#FF5F82" d="M112.2,441.3h14c4.1,0,7.4-3.3,7.4-7.4c0-4.1-3.3-7.4-7.4-7.4h-14c-4.1,0-7.4,3.3-7.4,7.4 C104.8,438,108.1,441.3,112.2,441.3z"></path> <path fill="#FF5F82" d="M225.4,441.3c4.1,0,7.4-3.3,7.4-7.4c0-4.1-3.3-7.4-7.4-7.4H210c-4.1,0-7.4,3.3-7.4,7.4 c0,4.1,3.3,7.4,7.4,7.4H225.4z"></path> <path fill="#FF5F82" d="M192.6,434c0-4.1-3.3-7.4-7.4-7.4h-34.3c-4.1,0-7.4,3.3-7.4,7.4c0,4.1,3.3,7.4,7.4,7.4h34.3 C189.3,441.3,192.6,438,192.6,434z"></path> <path fill="#FF5F82" d="M286,473.3h32.9c4.1,0,7.4-3.3,7.4-7.4c0-4.1-3.3-7.4-7.4-7.4H286c-4.1,0-7.4,3.3-7.4,7.4 C278.6,470,281.9,473.3,286,473.3z"></path> <path fill="#FF5F82" d="M345.8,473.3h53.9c4.1,0,7.4-3.3,7.4-7.4c0-4.1-3.3-7.4-7.4-7.4h-53.9c-4.1,0-7.4,3.3-7.4,7.4 C338.5,470,341.8,473.3,345.8,473.3z"></path> <path fill="#FF5F82" d="M286,441.3h14c4.1,0,7.4-3.3,7.4-7.4c0-4.1-3.3-7.4-7.4-7.4h-14c-4.1,0-7.4,3.3-7.4,7.4 C278.6,438,281.9,441.3,286,441.3z"></path> <path fill="#FF5F82" d="M399.1,441.3c4.1,0,7.4-3.3,7.4-7.4c0-4.1-3.3-7.4-7.4-7.4h-15.3c-4.1,0-7.4,3.3-7.4,7.4 c0,4.1,3.3,7.4,7.4,7.4H399.1z"></path> <path fill="#FF5F82" d="M366.4,434c0-4.1-3.3-7.4-7.4-7.4h-34.3c-4.1,0-7.4,3.3-7.4,7.4c0,4.1,3.3,7.4,7.4,7.4H359 C363.1,441.3,366.4,438,366.4,434z"></path> <path opacity="0.15" fill="#FF5F82" d="M359.2,3.1h54.2c17.1,0,31.1,13.9,31.1,31.1v442.1c0,17.1-13.9,31.1-31.1,31.1h-54.2V3.1z"></path> </g> </svg> 