<?xml version="1.0" encoding="UTF-8"?> <!-- Generator: Adobe Illustrator 18.0.0, SVG Export Plug-In . SVG Version: 6.00 Build 0) --> <svg xmlns="http://www.w3.org/2000/svg" xmlns:xlink="http://www.w3.org/1999/xlink" id="Capa_1" x="0px" y="0px" viewBox="0 0 512 512" xml:space="preserve"> <g> <rect x="325.9" y="302.3" opacity="0.15" fill="#FF5F82" width="64.5" height="50.3"></rect> <g opacity="0.15"> <path fill="#FF5F82" d="M150.6,453.2h30.2c4.6,0,8.4-3.8,8.4-8.4v-8.4h-38.6V453.2z"></path> <path fill="#FF5F82" d="M180.8,218.4h-30.2v201.2h38.6V226.8C189.2,222.2,185.4,218.4,180.8,218.4z"></path> </g> <g opacity="0.15"> <path fill="#FF5F82" d="M432.3,50.8h-13.5V252h38.6v-176C457.5,62,446.2,50.8,432.3,50.8z"></path> </g> <g opacity="0.15"> <path fill="#FF5F82" d="M452.4,453.2h30.2c4.6,0,8.4-3.8,8.4-8.4v-8.4h-38.6V453.2z"></path> <path fill="#FF5F82" d="M482.6,268.7h-30.2v150.9H491V277.1C491,272.5,487.2,268.7,482.6,268.7z"></path> </g> <g> <g> <path fill="#FF5F82" d="M482.6,252h-8.4v-176c0-23.1-18.8-41.9-41.9-41.9H80.2c-23.1,0-41.9,18.8-41.9,41.9v125.7h-8.4 c-13.9,0-25.1,11.3-25.1,25.2v218c0,13.9,11.3,25.1,25.1,25.1h318.6c4.6,0,8.4-3.8,8.4-8.4c0-23.1-18.8-41.9-41.9-41.9h-25.1 v-50.3h100.6v75.5c0,13.9,11.3,25.1,25.1,25.1h67.1c13.9,0,25.2-11.3,25.2-25.1V277.1C507.8,263.2,496.5,252,482.6,252z M189.2,444.8c0,4.6-3.8,8.4-8.4,8.4H29.9c-4.6,0-8.4-3.8-8.4-8.4v-8.4h167.7V444.8z M189.2,419.6H21.5V226.8 c0-4.6,3.8-8.4,8.4-8.4h150.9c4.6,0,8.4,3.8,8.4,8.4V419.6z M314.9,436.4c10.7,0,20.2,6.7,23.7,16.8H204.4c1-2.7,1.5-5.5,1.5-8.4 v-8.4H314.9z M206,419.6v-50.3h16.8v50.3H206z M239.5,419.6v-50.3H273v50.3H239.5z M390.4,352.6H206v-50.3h184.4V352.6z M390.4,277.1v8.4H206v-58.7c0-4-1-7.9-2.9-11.4c0.1-0.1,0.3-0.2,0.4-0.3l83-83c3.2-3.3,3.1-8.6-0.2-11.9 c-3.2-3.1-8.4-3.1-11.6,0l-83,83c-0.2,0.2-0.3,0.5-0.5,0.7c-3.3-1.5-6.8-2.3-10.4-2.3H55.1V75.9c0-13.9,11.3-25.2,25.1-25.2 h352.1c13.9,0,25.1,11.3,25.1,25.2v176h-41.9C401.7,252,390.4,263.2,390.4,277.1z M491,444.8c0,4.6-3.8,8.4-8.4,8.4h-67.1 c-4.6,0-8.4-3.8-8.4-8.4v-8.4H491V444.8z M491,419.6h-83.8V277.1c0-4.6,3.8-8.4,8.4-8.4h67.1c4.6,0,8.4,3.8,8.4,8.4V419.6z"></path> </g> </g> <g> <g> <path fill="#FF5F82" d="M104.9,303.7c-3.3-3.3-8.6-3.3-11.9,0l-35.6,35.6c-3.3,3.2-3.4,8.5-0.2,11.9c3.2,3.3,8.5,3.4,11.9,0.2 c0.1-0.1,0.1-0.1,0.2-0.2l35.6-35.6C106.4,313,103.4,308,104.9,303.7z"></path> </g> </g> <g> <g> <path fill="#FF5F82" d="M155,303.7c-3.2-3.1-8.4-3.1-11.6,0l-35.6,35.6c-3.3,3.2-3.4,8.5-0.2,11.9c3.2,3.3,8.5,3.4,11.9,0.2 c0.1-0.1,0.1-0.1,0.2-0.2l35.6-35.6C158.5,312.2,158.4,306.9,155,303.7z"></path> </g> </g> <g> <g> <path fill="#FF5F82" d="M337.4,120.3c-3.2-3.1-8.4-3.1-11.6,0l-83,83c-3.3,3.2-3.4,8.5-0.2,11.9c3.2,3.3,8.5,3.4,11.9,0.2 c0.1-0.1,0.1-0.1,0.2-0.2l83-83C340.9,128.8,340.8,123.5,337.4,120.3z"></path> </g> </g> <g> <g> <path fill="#FF5F82" d="M466.7,326.4c-3.2-3.1-8.4-3.1-11.6,0l-23.7,23.7c-3.3,3.2-3.4,8.5-0.2,11.9c3.2,3.3,8.5,3.4,11.9,0.2 c0.1-0.1,0.1-0.1,0.2-0.2l23.7-23.7C470.1,334.9,470,329.6,466.7,326.4z"></path> </g> </g> <g> <g> <path fill="#FF5F82" d="M256.4,319L256.4,319c-4.7,0-8.4,3.8-8.4,8.4c0,4.6,3.8,8.4,8.4,8.3c4.6,0,8.4-3.8,8.4-8.4 S261.1,319,256.4,319z"></path> </g> </g> <g> <g> <path fill="#FF5F82" d="M273,67.5h-33.5c-4.6,0-8.4,3.8-8.4,8.4c0,4.6,3.8,8.4,8.4,8.4H273c4.6,0,8.4-3.8,8.4-8.4 C281.4,71.3,277.7,67.5,273,67.5z"></path> </g> </g> </g> </svg> 